<svg width="19" height="23" viewBox="0 0 19 23" fill="none" xmlns="http://www.w3.org/2000/svg">
<path fill-rule="evenodd" clip-rule="evenodd" d="M9.92382 1.21863C10.2 1.21863 10.4238 1.44249 10.4238 1.71863V3.21863H17.7187C17.9948 3.21863 18.2187 3.44249 18.2187 3.71863C18.2187 3.99477 17.9948 4.21863 17.7187 4.21863H1.71869C1.44255 4.21863 1.21869 3.99477 1.21869 3.71863C1.21869 3.44249 1.44255 3.21863 1.71869 3.21863H9.42382V1.71863C9.42382 1.44249 9.64768 1.21863 9.92382 1.21863Z" fill="white"/>
<path fill-rule="evenodd" clip-rule="evenodd" d="M9.17382 1.71863C9.17382 1.30441 9.5096 0.968628 9.92382 0.968628C10.338 0.968628 10.6738 1.30441 10.6738 1.71863V2.96863H17.7187C18.1329 2.96863 18.4687 3.30441 18.4687 3.71863C18.4687 4.13284 18.1329 4.46863 17.7187 4.46863H1.71869C1.30448 4.46863 0.968689 4.13284 0.968689 3.71863C0.968689 3.30441 1.30448 2.96863 1.71869 2.96863H9.17382V1.71863ZM9.92382 1.46863C9.78575 1.46863 9.67382 1.58056 9.67382 1.71863V3.21863C9.67382 3.3567 9.56189 3.46863 9.42382 3.46863H1.71869C1.58062 3.46863 1.46869 3.58056 1.46869 3.71863C1.46869 3.8567 1.58062 3.96863 1.71869 3.96863H17.7187C17.8568 3.96863 17.9687 3.8567 17.9687 3.71863C17.9687 3.58056 17.8568 3.46863 17.7187 3.46863H10.4238C10.2857 3.46863 10.1738 3.3567 10.1738 3.21863V1.71863C10.1738 1.58056 10.0619 1.46863 9.92382 1.46863Z" fill="white"/>
<path fill-rule="evenodd" clip-rule="evenodd" d="M1.21869 5.71863C1.21869 5.44249 1.44255 5.21863 1.71869 5.21863H17.7187C17.9948 5.21863 18.2187 5.44249 18.2187 5.71863V17.7186C18.2187 20.2039 16.204 22.2186 13.7187 22.2186H5.71869C3.23341 22.2186 1.21869 20.2039 1.21869 17.7186V5.71863ZM2.21869 6.21863V17.7186C2.21869 19.6516 3.78569 21.2186 5.71869 21.2186H13.7187C15.6517 21.2186 17.2187 19.6516 17.2187 17.7186V6.21863H2.21869Z" fill="white"/>
<path fill-rule="evenodd" clip-rule="evenodd" d="M0.968689 5.71863C0.968689 5.30441 1.30448 4.96863 1.71869 4.96863H17.7187C18.1329 4.96863 18.4687 5.30441 18.4687 5.71863V17.7186C18.4687 20.342 16.342 22.4686 13.7187 22.4686H5.71869C3.09534 22.4686 0.968689 20.342 0.968689 17.7186V5.71863ZM1.71869 5.46863C1.58062 5.46863 1.46869 5.58056 1.46869 5.71863V17.7186C1.46869 20.0658 3.37148 21.9686 5.71869 21.9686H13.7187C16.0659 21.9686 17.9687 20.0658 17.9687 17.7186V5.71863C17.9687 5.58056 17.8568 5.46863 17.7187 5.46863H1.71869ZM1.96869 6.21863C1.96869 6.08056 2.08062 5.96863 2.21869 5.96863H17.2187C17.3568 5.96863 17.4687 6.08056 17.4687 6.21863V17.7186C17.4687 19.7897 15.7898 21.4686 13.7187 21.4686H5.71869C3.64762 21.4686 1.96869 19.7897 1.96869 17.7186V6.21863ZM2.46869 6.46863V17.7186C2.46869 19.5136 3.92376 20.9686 5.71869 20.9686H13.7187C15.5136 20.9686 16.9687 19.5136 16.9687 17.7186V6.46863H2.46869Z" fill="white"/>
<path fill-rule="evenodd" clip-rule="evenodd" d="M5.71869 9.21863C5.99483 9.21863 6.21869 9.44249 6.21869 9.71863V16.7186C6.21869 16.9948 5.99483 17.2186 5.71869 17.2186C5.44255 17.2186 5.21869 16.9948 5.21869 16.7186V9.71863C5.21869 9.44249 5.44255 9.21863 5.71869 9.21863Z" fill="white"/>
<path fill-rule="evenodd" clip-rule="evenodd" d="M4.96869 9.71863C4.96869 9.30441 5.30448 8.96863 5.71869 8.96863C6.1329 8.96863 6.46869 9.30441 6.46869 9.71863V16.7186C6.46869 17.1328 6.1329 17.4686 5.71869 17.4686C5.30448 17.4686 4.96869 17.1328 4.96869 16.7186V9.71863ZM5.71869 9.46863C5.58062 9.46863 5.46869 9.58056 5.46869 9.71863V16.7186C5.46869 16.8567 5.58062 16.9686 5.71869 16.9686C5.85676 16.9686 5.96869 16.8567 5.96869 16.7186V9.71863C5.96869 9.58056 5.85676 9.46863 5.71869 9.46863Z" fill="white"/>
<path fill-rule="evenodd" clip-rule="evenodd" d="M9.71869 9.21863C9.99483 9.21863 10.2187 9.44249 10.2187 9.71863V16.7186C10.2187 16.9948 9.99483 17.2186 9.71869 17.2186C9.44255 17.2186 9.21869 16.9948 9.21869 16.7186V9.71863C9.21869 9.44249 9.44255 9.21863 9.71869 9.21863Z" fill="white"/>
<path fill-rule="evenodd" clip-rule="evenodd" d="M8.96869 9.71863C8.96869 9.30441 9.30448 8.96863 9.71869 8.96863C10.1329 8.96863 10.4687 9.30441 10.4687 9.71863V16.7186C10.4687 17.1328 10.1329 17.4686 9.71869 17.4686C9.30448 17.4686 8.96869 17.1328 8.96869 16.7186V9.71863ZM9.71869 9.46863C9.58062 9.46863 9.46869 9.58056 9.46869 9.71863V16.7186C9.46869 16.8567 9.58062 16.9686 9.71869 16.9686C9.85676 16.9686 9.96869 16.8567 9.96869 16.7186V9.71863C9.96869 9.58056 9.85676 9.46863 9.71869 9.46863Z" fill="white"/>
<path fill-rule="evenodd" clip-rule="evenodd" d="M13.7187 9.21863C13.9948 9.21863 14.2187 9.44249 14.2187 9.71863V16.7186C14.2187 16.9948 13.9948 17.2186 13.7187 17.2186C13.4425 17.2186 13.2187 16.9948 13.2187 16.7186V9.71863C13.2187 9.44249 13.4425 9.21863 13.7187 9.21863Z" fill="white"/>
<path fill-rule="evenodd" clip-rule="evenodd" d="M12.9687 9.71863C12.9687 9.30441 13.3045 8.96863 13.7187 8.96863C14.1329 8.96863 14.4687 9.30441 14.4687 9.71863V16.7186C14.4687 17.1328 14.1329 17.4686 13.7187 17.4686C13.3045 17.4686 12.9687 17.1328 12.9687 16.7186V9.71863ZM13.7187 9.46863C13.5806 9.46863 13.4687 9.58056 13.4687 9.71863V16.7186C13.4687 16.8567 13.5806 16.9686 13.7187 16.9686C13.8568 16.9686 13.9687 16.8567 13.9687 16.7186V9.71863C13.9687 9.58056 13.8568 9.46863 13.7187 9.46863Z" fill="white"/>
</svg>
