<svg width="24" height="24" viewBox="0 0 24 24" fill="none" xmlns="http://www.w3.org/2000/svg">
<path fill-rule="evenodd" clip-rule="evenodd" d="M6.21869 1.21863C6.49483 1.21863 6.71869 1.44249 6.71869 1.71863V22.7186C6.71869 22.9948 6.49483 23.2186 6.21869 23.2186C5.94255 23.2186 5.71869 22.9948 5.71869 22.7186V1.71863C5.71869 1.44249 5.94255 1.21863 6.21869 1.21863Z" fill="white"/>
<path fill-rule="evenodd" clip-rule="evenodd" d="M5.46869 1.71863C5.46869 1.30441 5.80448 0.968628 6.21869 0.968628C6.6329 0.968628 6.96869 1.30441 6.96869 1.71863V22.7186C6.96869 23.1328 6.6329 23.4686 6.21869 23.4686C5.80448 23.4686 5.46869 23.1328 5.46869 22.7186V1.71863ZM6.21869 1.46863C6.08062 1.46863 5.96869 1.58056 5.96869 1.71863V22.7186C5.96869 22.8567 6.08062 22.9686 6.21869 22.9686C6.35676 22.9686 6.46869 22.8567 6.46869 22.7186V1.71863C6.46869 1.58056 6.35676 1.46863 6.21869 1.46863Z" fill="white"/>
<path fill-rule="evenodd" clip-rule="evenodd" d="M18.2187 1.21863C18.4948 1.21863 18.7187 1.44249 18.7187 1.71863V22.7186C18.7187 22.9948 18.4948 23.2186 18.2187 23.2186C17.9425 23.2186 17.7187 22.9948 17.7187 22.7186V1.71863C17.7187 1.44249 17.9425 1.21863 18.2187 1.21863Z" fill="white"/>
<path fill-rule="evenodd" clip-rule="evenodd" d="M17.4687 1.71863C17.4687 1.30441 17.8045 0.968628 18.2187 0.968628C18.6329 0.968628 18.9687 1.30441 18.9687 1.71863V22.7186C18.9687 23.1328 18.6329 23.4686 18.2187 23.4686C17.8045 23.4686 17.4687 23.1328 17.4687 22.7186V1.71863ZM18.2187 1.46863C18.0806 1.46863 17.9687 1.58056 17.9687 1.71863V22.7186C17.9687 22.8567 18.0806 22.9686 18.2187 22.9686C18.3568 22.9686 18.4687 22.8567 18.4687 22.7186V1.71863C18.4687 1.58056 18.3568 1.46863 18.2187 1.46863Z" fill="white"/>
<path fill-rule="evenodd" clip-rule="evenodd" d="M23.2187 6.21863C23.2187 6.49477 22.9948 6.71863 22.7187 6.71863L1.71869 6.71863C1.44255 6.71863 1.21869 6.49477 1.21869 6.21863C1.21869 5.94248 1.44255 5.71863 1.71869 5.71863L22.7187 5.71863C22.9948 5.71863 23.2187 5.94249 23.2187 6.21863Z" fill="white"/>
<path fill-rule="evenodd" clip-rule="evenodd" d="M22.7187 5.46863C23.1329 5.46863 23.4687 5.80441 23.4687 6.21863C23.4687 6.63284 23.1329 6.96863 22.7187 6.96863L1.71869 6.96863C1.30448 6.96863 0.968689 6.63284 0.968689 6.21863C0.968689 5.80441 1.30448 5.46863 1.71869 5.46863L22.7187 5.46863ZM22.9687 6.21863C22.9687 6.08056 22.8568 5.96863 22.7187 5.96863L1.71869 5.96863C1.58062 5.96863 1.46869 6.08056 1.46869 6.21863C1.46869 6.3567 1.58062 6.46863 1.71869 6.46863L22.7187 6.46863C22.8568 6.46863 22.9687 6.3567 22.9687 6.21863Z" fill="white"/>
<path fill-rule="evenodd" clip-rule="evenodd" d="M23.2187 18.2186C23.2187 18.4948 22.9948 18.7186 22.7187 18.7186L1.71869 18.7186C1.44255 18.7186 1.21869 18.4948 1.21869 18.2186C1.21869 17.9425 1.44255 17.7186 1.71869 17.7186L22.7187 17.7186C22.9948 17.7186 23.2187 17.9425 23.2187 18.2186Z" fill="white"/>
<path fill-rule="evenodd" clip-rule="evenodd" d="M22.7187 17.4686C23.1329 17.4686 23.4687 17.8044 23.4687 18.2186C23.4687 18.6328 23.1329 18.9686 22.7187 18.9686L1.71869 18.9686C1.30448 18.9686 0.968689 18.6328 0.968689 18.2186C0.968689 17.8044 1.30448 17.4686 1.71869 17.4686L22.7187 17.4686ZM22.9687 18.2186C22.9687 18.0806 22.8568 17.9686 22.7187 17.9686L1.71869 17.9686C1.58062 17.9686 1.46869 18.0806 1.46869 18.2186C1.46869 18.3567 1.58062 18.4686 1.71869 18.4686L22.7187 18.4686C22.8568 18.4686 22.9687 18.3567 22.9687 18.2186Z" fill="white"/>
</svg>
