<svg width="23" height="23" viewBox="0 0 23 23" fill="none" xmlns="http://www.w3.org/2000/svg">
<path fill-rule="evenodd" clip-rule="evenodd" d="M1.21869 5.71863C1.21869 3.23335 3.23341 1.21863 5.71869 1.21863H17.7187C20.204 1.21863 22.2187 3.23335 22.2187 5.71863V17.7186C22.2187 20.2039 20.204 22.2186 17.7187 22.2186H5.71869C3.23341 22.2186 1.21869 20.2039 1.21869 17.7186V5.71863ZM5.71869 2.21863C3.78569 2.21863 2.21869 3.78563 2.21869 5.71863V17.7186C2.21869 19.6516 3.78569 21.2186 5.71869 21.2186H17.7187C19.6517 21.2186 21.2187 19.6516 21.2187 17.7186V5.71863C21.2187 3.78563 19.6517 2.21863 17.7187 2.21863H5.71869Z" fill="white"/>
<path fill-rule="evenodd" clip-rule="evenodd" d="M0.968689 5.71863C0.968689 3.09528 3.09534 0.968628 5.71869 0.968628H17.7187C20.342 0.968628 22.4687 3.09528 22.4687 5.71863V17.7186C22.4687 20.342 20.342 22.4686 17.7187 22.4686H5.71869C3.09534 22.4686 0.968689 20.342 0.968689 17.7186V5.71863ZM5.71869 1.46863C3.37148 1.46863 1.46869 3.37142 1.46869 5.71863V17.7186C1.46869 20.0658 3.37148 21.9686 5.71869 21.9686H17.7187C20.0659 21.9686 21.9687 20.0658 21.9687 17.7186V5.71863C21.9687 3.37142 20.0659 1.46863 17.7187 1.46863H5.71869ZM5.71869 2.46863C3.92376 2.46863 2.46869 3.9237 2.46869 5.71863V17.7186C2.46869 19.5136 3.92376 20.9686 5.71869 20.9686H17.7187C19.5136 20.9686 20.9687 19.5136 20.9687 17.7186V5.71863C20.9687 3.9237 19.5136 2.46863 17.7187 2.46863H5.71869ZM1.96869 5.71863C1.96869 3.64756 3.64762 1.96863 5.71869 1.96863H17.7187C19.7898 1.96863 21.4687 3.64756 21.4687 5.71863V17.7186C21.4687 19.7897 19.7898 21.4686 17.7187 21.4686H5.71869C3.64762 21.4686 1.96869 19.7897 1.96869 17.7186V5.71863Z" fill="white"/>
</svg>
